<svg xmlns="http://www.w3.org/2000/svg" viewBox="0 0 64 64" width="64" height="64">
      <defs><linearGradient id="bg" x1="8" y1="6" x2="58" y2="60"><stop offset="0" stop-color="#08111F"/><stop offset="1" stop-color="#020617"/></linearGradient><linearGradient id="rim" x1="11" y1="8" x2="56" y2="56"><stop offset="0" stop-color="#67E8F9"/><stop offset="0.55" stop-color="#A78BFA"/><stop offset="1" stop-color="#5EEAD4"/></linearGradient></defs>
      <rect x="6" y="6" width="52" height="52" rx="15" fill="url(#bg)"/>
      <rect x="8" y="8" width="48" height="48" rx="13" fill="none" stroke="url(#rim)" stroke-width="2"/>
      <path d="M21 13H39L48 22V48C48 51 45 54 42 54H21C18 54 15 51 15 48V19C15 16 18 13 21 13Z" fill="#F8FAFC"/><path d="M39 13V21C39 24 41 26 44 26H48" fill="#C4B5FD"/><path d="M22 33H42M22 40H40" stroke="#111827" stroke-width="3.2" stroke-linecap="round" opacity="0.72"/>

    </svg>
