<svg width="512" height="512" viewBox="0 0 512 512" fill="none" xmlns="http://www.w3.org/2000/svg" role="img" aria-labelledby="title desc">
  <title id="title">Liora abstract native UI mark</title>
  <desc id="desc">A symbol-only graphite and glacier glass mark for the Liora pure Rust and GPUI native UI component library.</desc>
  <defs>
    <radialGradient id="ambient" cx="0" cy="0" r="1" gradientUnits="userSpaceOnUse" gradientTransform="translate(256 232) rotate(90) scale(252)">
      <stop offset="0" stop-color="#E6FBFF"/>
      <stop offset="0.42" stop-color="#9ADBE8"/>
      <stop offset="0.72" stop-color="#546A89"/>
      <stop offset="1" stop-color="#111827"/>
    </radialGradient>
    <linearGradient id="graphite" x1="98" y1="70" x2="414" y2="442" gradientUnits="userSpaceOnUse">
      <stop offset="0" stop-color="#334155"/>
      <stop offset="0.48" stop-color="#111827"/>
      <stop offset="1" stop-color="#020617"/>
    </linearGradient>
    <linearGradient id="glass-a" x1="154" y1="126" x2="370" y2="366" gradientUnits="userSpaceOnUse">
      <stop offset="0" stop-color="#F8FDFF"/>
      <stop offset="0.38" stop-color="#B8EEF7"/>
      <stop offset="0.74" stop-color="#6F8BA8"/>
      <stop offset="1" stop-color="#2B3650"/>
    </linearGradient>
    <linearGradient id="glass-b" x1="332" y1="138" x2="170" y2="392" gradientUnits="userSpaceOnUse">
      <stop offset="0" stop-color="#FFFFFF" stop-opacity="0.86"/>
      <stop offset="0.34" stop-color="#D4F7FF" stop-opacity="0.76"/>
      <stop offset="1" stop-color="#8FA8C8" stop-opacity="0.46"/>
    </linearGradient>
    <linearGradient id="violet-trace" x1="158" y1="122" x2="354" y2="384" gradientUnits="userSpaceOnUse">
      <stop offset="0" stop-color="#E9D5FF" stop-opacity="0.78"/>
      <stop offset="0.54" stop-color="#93C5FD" stop-opacity="0.46"/>
      <stop offset="1" stop-color="#0F172A" stop-opacity="0.08"/>
    </linearGradient>
    <filter id="lift" x="52" y="42" width="408" height="428" filterUnits="userSpaceOnUse" color-interpolation-filters="sRGB">
      <feDropShadow dx="0" dy="26" stdDeviation="28" flood-color="#020617" flood-opacity="0.24"/>
      <feDropShadow dx="0" dy="2" stdDeviation="4" flood-color="#E0F2FE" flood-opacity="0.22"/>
    </filter>
    <filter id="mist" x="78" y="64" width="356" height="360" filterUnits="userSpaceOnUse" color-interpolation-filters="sRGB">
      <feGaussianBlur stdDeviation="14" result="blur"/>
      <feColorMatrix in="blur" type="matrix" values="0 0 0 0 0.58 0 0 0 0 0.86 0 0 0 0 0.94 0 0 0 0.20 0"/>
      <feBlend in="SourceGraphic" mode="normal"/>
    </filter>
  </defs>

  <rect width="512" height="512" rx="116" fill="#F8FAFC"/>
  <rect x="26" y="26" width="460" height="460" rx="98" fill="url(#ambient)" opacity="0.16"/>
  <circle cx="178" cy="150" r="118" fill="#E0F2FE" opacity="0.32"/>
  <circle cx="342" cy="356" r="134" fill="#CBD5E1" opacity="0.26"/>

  <g filter="url(#lift)">
    <path d="M256 66C338.843 66 406 133.157 406 216C406 343.8 256 444 256 444C256 444 106 343.8 106 216C106 133.157 173.157 66 256 66Z" fill="url(#graphite)"/>
    <path d="M256 74C334.425 74 398 137.575 398 216C398 335.2 256 432 256 432C256 432 114 335.2 114 216C114 137.575 177.575 74 256 74Z" stroke="#F8FAFC" stroke-opacity="0.28" stroke-width="3"/>
    <path d="M256 86C327.797 86 386 144.203 386 216C386 324.4 256 416 256 416C256 416 126 324.4 126 216C126 144.203 184.203 86 256 86Z" stroke="#7DD3FC" stroke-opacity="0.18" stroke-width="2"/>
  </g>

  <g filter="url(#mist)">
    <path d="M164 206.5C194.8 153.5 235.1 124.4 285 119.2C329.2 114.6 366.2 133.2 396 175C376.7 164.8 351.8 160.1 321.2 161C278.1 162.2 239.9 181.7 206.5 219.4L164 206.5Z" fill="url(#glass-a)"/>
    <path d="M155 303C194.6 239.4 237.7 205.2 284.4 200.4C326 196.1 366.2 214.6 405 256C367.9 247.5 333.5 250.4 301.9 264.7C267.6 280.3 234.8 312.1 203.5 360.2L155 303Z" fill="url(#glass-b)"/>
    <path d="M190 365.5C225.3 326.2 264.3 306.9 307 307.7C343.4 308.4 375.2 324.1 402.4 354.6C363.7 350.9 328.7 358.6 297.4 377.8C278.8 389.2 262.2 403.8 247.6 421.6C230.4 408.6 211.2 389.9 190 365.5Z" fill="#D7F7FF" fill-opacity="0.58"/>
    <path d="M161 207C193.7 153.4 234.8 124.2 284.4 119.4C328.8 115.1 365.7 133.3 395 174" stroke="#FFFFFF" stroke-opacity="0.70" stroke-width="7" stroke-linecap="round"/>
    <path d="M155 302.5C194.4 239.2 237.4 205.2 284 200.7C326.4 196.6 366.6 215 404.5 256" stroke="#E0F2FE" stroke-opacity="0.62" stroke-width="7" stroke-linecap="round"/>
    <path d="M190 365C225.1 326 264 306.9 306.6 307.8C343 308.5 374.7 324 402 354" stroke="#F8FAFC" stroke-opacity="0.45" stroke-width="6" stroke-linecap="round"/>
    <path d="M188 235C222.4 195.9 260.4 176 302 175.2C336.5 174.6 367.3 186.4 394.3 210.4" stroke="url(#violet-trace)" stroke-width="18" stroke-linecap="round" opacity="0.72"/>
  </g>

  <path d="M256 66C338.843 66 406 133.157 406 216C406 343.8 256 444 256 444C256 444 106 343.8 106 216C106 133.157 173.157 66 256 66Z" stroke="#020617" stroke-opacity="0.06" stroke-width="2"/>
</svg>
