<svg width="512" height="512" viewBox="0 0 512 512" fill="none" xmlns="http://www.w3.org/2000/svg" role="img" aria-labelledby="title desc">
  <title id="title">Liora abstract native UI mark</title>
  <desc id="desc">An abstract luminous folded-surface symbol for the Liora pure Rust and GPUI native UI component library.</desc>
  <defs>
    <radialGradient id="aura" cx="0" cy="0" r="1" gradientUnits="userSpaceOnUse" gradientTransform="translate(150 120) rotate(49.7) scale(355)">
      <stop offset="0" stop-color="#CFFAFE"/>
      <stop offset="0.34" stop-color="#A78BFA"/>
      <stop offset="0.68" stop-color="#2DD4BF"/>
      <stop offset="1" stop-color="#0F172A"/>
    </radialGradient>
    <linearGradient id="surface" x1="134" y1="88" x2="382" y2="422" gradientUnits="userSpaceOnUse">
      <stop offset="0" stop-color="#F8FAFC"/>
      <stop offset="0.28" stop-color="#D9F99D"/>
      <stop offset="0.58" stop-color="#67E8F9"/>
      <stop offset="1" stop-color="#8B5CF6"/>
    </linearGradient>
    <linearGradient id="edge" x1="116" y1="88" x2="404" y2="424" gradientUnits="userSpaceOnUse">
      <stop offset="0" stop-color="#FFFFFF" stop-opacity="0.96"/>
      <stop offset="0.42" stop-color="#E0F2FE" stop-opacity="0.68"/>
      <stop offset="1" stop-color="#C4B5FD" stop-opacity="0.72"/>
    </linearGradient>
    <linearGradient id="shadow" x1="176" y1="146" x2="356" y2="364" gradientUnits="userSpaceOnUse">
      <stop offset="0" stop-color="#0F172A" stop-opacity="0.08"/>
      <stop offset="1" stop-color="#0F172A" stop-opacity="0.42"/>
    </linearGradient>
    <filter id="soft-glow" x="34" y="26" width="444" height="460" filterUnits="userSpaceOnUse" color-interpolation-filters="sRGB">
      <feGaussianBlur stdDeviation="18" result="blur"/>
      <feColorMatrix in="blur" type="matrix" values="0 0 0 0 0.23 0 0 0 0 0.58 0 0 0 0 0.98 0 0 0 0.34 0"/>
      <feBlend in="SourceGraphic" mode="normal"/>
    </filter>
    <clipPath id="core-clip">
      <path d="M256 74C334.4 74 398 137.6 398 216C398 345.4 256 438 256 438C256 438 114 345.4 114 216C114 137.6 177.6 74 256 74Z"/>
    </clipPath>
  </defs>

  <rect width="512" height="512" rx="112" fill="#F8FAFC"/>
  <rect x="20" y="20" width="472" height="472" rx="96" fill="url(#aura)" opacity="0.12"/>
  <circle cx="160" cy="128" r="118" fill="#CCFBF1" opacity="0.34"/>
  <circle cx="368" cy="366" r="132" fill="#DDD6FE" opacity="0.42"/>

  <g filter="url(#soft-glow)">
    <path d="M256 74C334.4 74 398 137.6 398 216C398 345.4 256 438 256 438C256 438 114 345.4 114 216C114 137.6 177.6 74 256 74Z" fill="#020617" opacity="0.06"/>
    <path d="M256 82C330 82 390 142 390 216C390 339.6 256 428 256 428C256 428 122 339.6 122 216C122 142 182 82 256 82Z" fill="url(#surface)"/>
    <path d="M256 82C330 82 390 142 390 216C390 339.6 256 428 256 428C256 428 122 339.6 122 216C122 142 182 82 256 82Z" stroke="url(#edge)" stroke-width="10"/>

    <g clip-path="url(#core-clip)">
      <path d="M140 236C178 178 221 145 272 137C314 130.4 354 143.2 394 176V252C344 215.8 300.8 201.8 264.2 210C221.6 219.6 183.8 254 140 313V236Z" fill="#F8FAFC" fill-opacity="0.88"/>
      <path d="M132 332C174.8 270.4 216.2 235.6 256.2 227.6C298.6 219.2 343 234.6 390 274.2V347.4C342.2 309.8 298.8 294.4 259.8 301.4C218.6 308.8 178.2 340.6 132 397.6V332Z" fill="#0F172A" fill-opacity="0.18"/>
      <path d="M176 163C206.6 133.4 246.2 118 288.8 121.8C329.2 125.4 365.6 145.6 398 182.4V217.4C359.6 177 318.4 158.6 274.4 162.2C238 165.2 205.2 183 176 215.4V163Z" fill="#ECFEFF" fill-opacity="0.52"/>
      <path d="M196 362C226.4 335.4 260.8 323.8 299.2 327.2C333.4 330.2 365.8 344 396.4 368.8V426H196V362Z" fill="#312E81" fill-opacity="0.16"/>
      <path d="M138 235.5C176.5 177.8 221.3 144.6 272 137C314.2 130.7 354.9 143.8 396 178" stroke="#FFFFFF" stroke-opacity="0.72" stroke-width="9" stroke-linecap="round"/>
      <path d="M134 331C177.8 270.1 218.4 236.4 256.2 228.4C299.5 219.2 344.2 234.4 391 274" stroke="#E0F2FE" stroke-opacity="0.46" stroke-width="8" stroke-linecap="round"/>
      <path d="M170 216C203.6 174.4 240.8 153.8 281.4 154.2C322.6 154.6 361.6 176.6 398 220" stroke="#0F766E" stroke-opacity="0.18" stroke-width="14" stroke-linecap="round"/>
    </g>

    <path d="M256 82C330 82 390 142 390 216C390 339.6 256 428 256 428C256 428 122 339.6 122 216C122 142 182 82 256 82Z" fill="url(#shadow)" opacity="0.16"/>
    <path d="M256 82C330 82 390 142 390 216C390 339.6 256 428 256 428C256 428 122 339.6 122 216C122 142 182 82 256 82Z" stroke="#FFFFFF" stroke-opacity="0.34" stroke-width="2"/>
  </g>
</svg>
