<svg xmlns="http://www.w3.org/2000/svg" viewBox="0 0 64 64" width="64" height="64">
      <defs><linearGradient id="bg" x1="8" y1="6" x2="58" y2="60"><stop offset="0" stop-color="#0F172A"/><stop offset="1" stop-color="#020617"/></linearGradient><linearGradient id="rim" x1="8" y1="8" x2="56" y2="56"><stop offset="0" stop-color="#67E8F9"/><stop offset="0.52" stop-color="#A78BFA"/><stop offset="1" stop-color="#5EEAD4"/></linearGradient><filter id="s"><feDropShadow dx="0" dy="4" stdDeviation="4" flood-color="#000" flood-opacity="0.28"/></filter></defs>
      <rect x="6" y="6" width="52" height="52" rx="16" fill="url(#bg)" filter="url(#s)"/>
      <rect x="8" y="8" width="48" height="48" rx="14" fill="none" stroke="url(#rim)" stroke-width="2.4"/>
      <path d="M20 10H39L50 21V52C50 55 47 58 44 58H20C17 58 14 55 14 52V16C14 13 17 10 20 10Z" fill="#F8FAFC"/><path d="M39 10V19C39 23 42 26 46 26H50" fill="#C4B5FD"/><circle cx="22" cy="20" r="3" fill="#67E8F9"/><path d="M22 36H43M22 44H40" stroke="#111827" stroke-width="3.2" stroke-linecap="round" opacity="0.72"/><path d="M41 51C36 54 31 55 26 55" stroke="#5EEAD4" stroke-width="2.4" stroke-linecap="round"/>
    </svg>
