<svg xmlns="http://www.w3.org/2000/svg" viewBox="0 0 1024 1024" width="1024" height="1024" role="img" aria-label="Liora Docs application icon">
      <defs>
        <linearGradient id="bg" x1="132" y1="92" x2="894" y2="930" gradientUnits="userSpaceOnUse">
          <stop offset="0" stop-color="#08111F"/><stop offset="0.42" stop-color="#111827"/><stop offset="1" stop-color="#020617"/>
        </linearGradient>
        <radialGradient id="cyan" cx="28%" cy="22%" r="62%"><stop offset="0" stop-color="#67E8F9" stop-opacity="0.68"/><stop offset="1" stop-color="#67E8F9" stop-opacity="0"/></radialGradient>
        <radialGradient id="mint" cx="72%" cy="78%" r="60%"><stop offset="0" stop-color="#5EEAD4" stop-opacity="0.52"/><stop offset="1" stop-color="#5EEAD4" stop-opacity="0"/></radialGradient>
        <radialGradient id="violet" cx="78%" cy="18%" r="48%"><stop offset="0" stop-color="#A78BFA" stop-opacity="0.45"/><stop offset="1" stop-color="#A78BFA" stop-opacity="0"/></radialGradient>
        <linearGradient id="aurora" x1="206" y1="208" x2="824" y2="820" gradientUnits="userSpaceOnUse"><stop offset="0" stop-color="#67E8F9"/><stop offset="0.52" stop-color="#A78BFA"/><stop offset="1" stop-color="#5EEAD4"/></linearGradient>
        <filter id="shadow" x="-25%" y="-25%" width="150%" height="150%"><feDropShadow dx="0" dy="32" stdDeviation="34" flood-color="#000" flood-opacity="0.38"/></filter>
        <filter id="glow" x="-60%" y="-60%" width="220%" height="220%"><feGaussianBlur stdDeviation="14" result="b"/><feMerge><feMergeNode in="b"/><feMergeNode in="SourceGraphic"/></feMerge></filter>
        <clipPath id="round"><rect x="64" y="64" width="896" height="896" rx="218"/></clipPath>
      </defs>
      <g clip-path="url(#round)">
        <rect x="64" y="64" width="896" height="896" rx="218" fill="url(#bg)"/>
        <rect x="64" y="64" width="896" height="896" rx="218" fill="url(#cyan)"/>
        <rect x="64" y="64" width="896" height="896" rx="218" fill="url(#mint)"/>
        <rect x="64" y="64" width="896" height="896" rx="218" fill="url(#violet)"/>
        <path d="M88 814C250 714 420 696 592 758C746 814 850 758 960 650V960H88Z" fill="#0F172A" opacity="0.62"/>
        <circle cx="822" cy="202" r="114" fill="#FFFFFF" opacity="0.04"/>
        <circle cx="205" cy="782" r="136" fill="#FFFFFF" opacity="0.035"/>
      </g>
      <rect x="64" y="64" width="896" height="896" rx="218" fill="none" stroke="#FFFFFF" stroke-opacity="0.16" stroke-width="3"/>

        <g filter="url(#shadow)">
          <path d="M326 196H616L754 334V784C754 826 720 860 678 860H326C284 860 250 826 250 784V272C250 230 284 196 326 196Z" fill="#F8FAFC" fill-opacity="0.96"/>
          <path d="M616 198V316C616 352 646 382 682 382H752" fill="#C4B5FD" opacity="0.94"/>
          <path d="M346 486H666M346 576H666M346 666H580" stroke="#111827" stroke-width="34" stroke-linecap="round" opacity="0.70"/>
          <path d="M326 196H616L754 334V784C754 826 720 860 678 860H326C284 860 250 826 250 784V272C250 230 284 196 326 196Z" fill="none" stroke="url(#aurora)" stroke-width="24"/>
          <circle cx="342" cy="304" r="30" fill="#67E8F9" filter="url(#glow)"/>
        </g>
        <path d="M764 686C704 738 638 762 566 758" stroke="#5EEAD4" stroke-width="18" stroke-linecap="round" opacity="0.78"/>

    </svg>
