<svg xmlns="http://www.w3.org/2000/svg" viewBox="0 0 1024 1024" width="1024" height="1024">

  <defs>
    <linearGradient id="bg" x1="160" y1="80" x2="880" y2="944" gradientUnits="userSpaceOnUse">
      <stop offset="0" stop-color="#111a3f"/>
      <stop offset="0.45" stop-color="#321b72"/>
      <stop offset="1" stop-color="#050814"/>
    </linearGradient>
    <radialGradient id="liora1" cx="34%" cy="24%" r="62%">
      <stop offset="0" stop-color="#62f4ff" stop-opacity="0.88"/>
      <stop offset="0.42" stop-color="#7b61ff" stop-opacity="0.34"/>
      <stop offset="1" stop-color="#7b61ff" stop-opacity="0"/>
    </radialGradient>
    <radialGradient id="liora2" cx="70%" cy="76%" r="58%">
      <stop offset="0" stop-color="#ff7adf" stop-opacity="0.72"/>
      <stop offset="0.38" stop-color="#a855f7" stop-opacity="0.28"/>
      <stop offset="1" stop-color="#a855f7" stop-opacity="0"/>
    </radialGradient>
    <linearGradient id="stroke" x1="238" y1="188" x2="820" y2="856" gradientUnits="userSpaceOnUse">
      <stop offset="0" stop-color="#84f7ff"/>
      <stop offset="0.48" stop-color="#b9a7ff"/>
      <stop offset="1" stop-color="#ff8bd8"/>
    </linearGradient>
    <linearGradient id="whiteGlass" x1="314" y1="188" x2="690" y2="814" gradientUnits="userSpaceOnUse">
      <stop offset="0" stop-color="#ffffff"/>
      <stop offset="1" stop-color="#d7e3ff"/>
    </linearGradient>
    <filter id="softShadow" x="-20%" y="-20%" width="140%" height="140%">
      <feDropShadow dx="0" dy="32" stdDeviation="34" flood-color="#000000" flood-opacity="0.38"/>
    </filter>
    <filter id="glow" x="-35%" y="-35%" width="170%" height="170%">
      <feGaussianBlur stdDeviation="12" result="blur"/>
      <feMerge>
        <feMergeNode in="blur"/>
        <feMergeNode in="SourceGraphic"/>
      </feMerge>
    </filter>
    <clipPath id="clipRound"><rect x="64" y="64" width="896" height="896" rx="218"/></clipPath>
  </defs>


  <g clip-path="url(#clipRound)">
    <rect x="64" y="64" width="896" height="896" rx="218" fill="url(#bg)"/>
    <rect x="64" y="64" width="896" height="896" rx="218" fill="url(#liora1)"/>
    <rect x="64" y="64" width="896" height="896" rx="218" fill="url(#liora2)"/>
    <path d="M118 794C282 686 420 710 570 770C728 833 850 792 954 680V960H118Z" fill="#101936" opacity="0.5"/>
    <circle cx="820" cy="190" r="104" fill="#ffffff" opacity="0.05"/>
    <circle cx="212" cy="770" r="140" fill="#ffffff" opacity="0.035"/>
  </g>
  <rect x="64" y="64" width="896" height="896" rx="218" fill="none" stroke="#ffffff" stroke-opacity="0.18" stroke-width="3"/>


  <g filter="url(#softShadow)">
    <path d="M326 218H612L740 346V788C740 820 714 846 682 846H326C294 846 268 820 268 788V276C268 244 294 218 326 218Z" fill="#f7fbff" fill-opacity="0.94"/>
    <path d="M612 218V326C612 350 632 370 656 370H740" fill="#c7d2fe" opacity="0.92"/>
    <path d="M354 476H654M354 562H654M354 648H568" stroke="#182044" stroke-width="34" stroke-linecap="round" opacity="0.72"/>
    <path d="M326 218H612L740 346V788C740 820 714 846 682 846H326C294 846 268 820 268 788V276C268 244 294 218 326 218Z" fill="none" stroke="url(#stroke)" stroke-width="22"/>
  </g>
  <circle cx="316" cy="292" r="28" fill="#7df7ff" filter="url(#glow)"/>

</svg>